<svg width="144" height="144" viewBox="0 0 144 144" fill="none" xmlns="http://www.w3.org/2000/svg">
<path d="M144 72C144 85.9551 139.945 99.6094 132.327 111.302C124.71 122.995 113.858 132.222 101.093 137.86C88.328 143.499 74.1993 145.307 60.4257 143.064C46.6522 140.82 33.8273 134.623 23.5113 125.225L72 72H144Z" fill="#132945"/>
<path d="M102.636 82.7882L102.648 82.7673L102.66 82.7462C103.036 82.0702 103.374 81.1432 103.223 80.0872C103.064 78.9748 102.428 78.1574 101.704 77.6252L96.6679 73.715C96.6913 73.1949 96.7015 72.6203 96.7015 72C96.7015 71.3797 96.6913 70.8051 96.6679 70.285L101.704 66.3748C102.428 65.8426 103.064 65.0252 103.223 63.9128C103.374 62.8568 103.036 61.9298 102.66 61.2538L102.648 61.2327L102.636 61.2118L96.7749 51.1431C96.3391 50.386 95.6362 49.7014 94.6286 49.3919C93.6741 49.0987 92.7617 49.2403 92.0483 49.4776L91.9825 49.4995L91.9181 49.525L85.9605 51.8815C85.0004 51.229 84.007 50.6493 82.9805 50.1436L82.0829 43.8712L82.0693 43.776L82.0484 43.6821C81.8852 42.949 81.5359 42.1064 80.8016 41.4467C80.0309 40.7543 79.1009 40.5 78.2443 40.5H66.5151C65.6584 40.5 64.7284 40.7543 63.9578 41.4467C63.2234 42.1064 62.8741 42.949 62.7109 43.6821L62.69 43.776L62.6764 43.8712L61.7788 50.1436C60.8481 50.6141 59.8631 51.2019 58.8281 51.893L52.8413 49.525L52.7769 49.4995L52.7111 49.4776C51.9977 49.2403 51.0852 49.0987 50.1307 49.3919C49.1232 49.7013 48.4205 50.3859 47.9846 51.1428L42.1235 61.2118L42.1114 61.2327L42.0996 61.2538C41.7234 61.9298 41.3855 62.8568 41.5366 63.9128C41.6958 65.0252 42.3313 65.8426 43.0553 66.3748L48.0915 70.285C48.0681 70.8051 48.0579 71.3797 48.0579 72C48.0579 72.6203 48.0681 73.1949 48.0915 73.715L43.0554 77.6252C42.3313 78.1574 41.6958 78.9748 41.5366 80.0872C41.3855 81.1432 41.7234 82.0702 42.0996 82.7462L42.1114 82.7673L42.1235 82.7882L47.9845 92.857C48.4204 93.614 49.1232 94.2986 50.1307 94.6081C51.0852 94.9013 51.9977 94.7597 52.7111 94.5224L52.7769 94.5005L52.8413 94.475L58.7988 92.1185C59.7589 92.771 60.7524 93.3507 61.7788 93.8564L62.6764 100.129L62.69 100.224L62.7109 100.318C62.8741 101.051 63.2234 101.894 63.9578 102.553C64.7284 103.246 65.6584 103.5 66.5151 103.5H78.2443C79.1009 103.5 80.0309 103.246 80.8016 102.553C81.5359 101.894 81.8852 101.051 82.0484 100.318L82.0693 100.224L82.0829 100.129L82.9805 93.8564C83.9112 93.3859 84.8962 92.7981 85.9312 92.107L91.9181 94.475L91.9825 94.5005L92.0483 94.5224C92.7616 94.7597 93.6741 94.9013 94.6286 94.6081C95.6362 94.2986 96.3389 93.6141 96.7748 92.8571L102.636 82.7882Z" fill="#132945" stroke="white" stroke-width="5"/>
<circle cx="72.1986" cy="72.1704" r="10.0615" fill="#132945" stroke="white" stroke-width="5"/>
<path d="M117.697 26.3037C129.985 38.5924 136.889 55.2593 136.889 72.6381C136.889 90.0169 129.985 106.684 117.697 118.973C105.408 131.261 88.7409 138.165 71.3621 138.165C63.0989 138.165 54.9965 136.604 47.4492 133.646" stroke="white" stroke-width="5" stroke-linecap="round"/>
<circle cx="118.253" cy="26.6973" r="8.91942" fill="white"/>
<circle cx="118.253" cy="26.6971" r="3.82261" fill="#17345A"/>
<path d="M24.5257 118.986C12.2461 106.689 5.3548 90.0167 5.36765 72.6379C5.38051 55.2591 12.2965 38.5973 24.5943 26.3177C36.892 14.0382 53.5641 7.1468 70.9428 7.15966C78.4265 7.16519 85.7772 8.45082 92.7023 10.895" stroke="white" stroke-width="5" stroke-linecap="round"/>
<circle cx="23.1888" cy="119.379" r="8.81759" transform="rotate(-179.958 23.1888 119.379)" fill="white"/>
<circle cx="23.1889" cy="119.379" r="3.77897" transform="rotate(-179.958 23.1889 119.379)" fill="#17345A"/>
</svg>
